<svg width="105" height="25" viewBox="0 0 105 25" fill="none" xmlns="http://www.w3.org/2000/svg">
<path d="M0.92 24V0.688H9.496C11.1067 0.688 12.4773 0.837333 13.608 1.136C14.7387 1.43467 15.6613 1.856 16.376 2.4C17.0907 2.944 17.608 3.60533 17.928 4.384C18.2587 5.16267 18.424 6.032 18.424 6.992C18.424 7.51467 18.3493 8.02133 18.2 8.512C18.0507 8.992 17.816 9.44533 17.496 9.872C17.176 10.2987 16.7653 10.688 16.264 11.04C15.7627 11.3813 15.16 11.68 14.456 11.936C15.992 12.3093 17.128 12.9173 17.864 13.76C18.6 14.592 18.968 15.664 18.968 16.976C18.968 17.968 18.776 18.8907 18.392 19.744C18.008 20.5973 17.4427 21.344 16.696 21.984C15.96 22.6133 15.048 23.1093 13.96 23.472C12.872 23.824 11.6293 24 10.232 24H0.92ZM6.328 14.112V19.92H10.136C10.8507 19.92 11.432 19.8293 11.88 19.648C12.3387 19.4667 12.696 19.232 12.952 18.944C13.208 18.656 13.384 18.3307 13.48 17.968C13.576 17.6053 13.624 17.2373 13.624 16.864C13.624 16.4373 13.5653 16.0533 13.448 15.712C13.3413 15.3707 13.1493 15.0827 12.872 14.848C12.6053 14.6133 12.248 14.432 11.8 14.304C11.352 14.176 10.7867 14.112 10.104 14.112H6.328ZM6.328 10.496H9.144C9.74133 10.496 10.28 10.4533 10.76 10.368C11.24 10.2827 11.6453 10.1333 11.976 9.92C12.3173 9.70667 12.5733 9.41333 12.744 9.04C12.9253 8.66667 13.016 8.19733 13.016 7.632C13.016 7.07733 12.9467 6.61867 12.808 6.256C12.6693 5.88267 12.456 5.584 12.168 5.36C11.88 5.136 11.512 4.976 11.064 4.88C10.6267 4.784 10.104 4.736 9.496 4.736H6.328V10.496ZM31.488 0.688V4.848H21.92V10.288H29.248V14.288H21.92V19.84H31.488V24H16.48V0.688H31.488ZM40.7497 15.136V24H35.3417V15.136L26.8937 0.688H31.6617C32.1311 0.688 32.5044 0.799999 32.7817 1.024C33.0591 1.23733 33.2831 1.51467 33.4537 1.856L36.7497 8.64C37.0164 9.184 37.2617 9.68533 37.4857 10.144C37.7097 10.6027 37.9071 11.056 38.0777 11.504C38.2377 11.0453 38.4297 10.5867 38.6537 10.128C38.8777 9.66933 39.1177 9.17333 39.3737 8.64L42.6377 1.856C42.7017 1.71733 42.7871 1.57867 42.8937 1.44C43.0111 1.30133 43.1391 1.17867 43.2778 1.072C43.4271 0.954665 43.5924 0.863998 43.7738 0.799999C43.9658 0.725333 44.1737 0.688 44.3977 0.688H49.1978L40.7497 15.136ZM67.0768 12.336C67.0768 14.0213 66.7834 15.5893 66.1968 17.04C65.6208 18.4907 64.8048 19.7547 63.7488 20.832C62.6928 21.8987 61.4181 22.736 59.9248 23.344C58.4421 23.952 56.7941 24.256 54.9808 24.256C53.1674 24.256 51.5141 23.952 50.0208 23.344C48.5274 22.736 47.2474 21.8987 46.1808 20.832C45.1248 19.7547 44.3034 18.4907 43.7168 17.04C43.1408 15.5893 42.8528 14.0213 42.8528 12.336C42.8528 10.6507 43.1408 9.08267 43.7168 7.632C44.3034 6.18133 45.1248 4.92267 46.1808 3.856C47.2474 2.78933 48.5274 1.952 50.0208 1.344C51.5141 0.735999 53.1674 0.431999 54.9808 0.431999C56.7941 0.431999 58.4421 0.741332 59.9248 1.36C61.4181 1.968 62.6928 2.80533 63.7488 3.872C64.8048 4.93867 65.6208 6.19733 66.1968 7.648C66.7834 9.09867 67.0768 10.6613 67.0768 12.336ZM61.5408 12.336C61.5408 11.184 61.3914 10.1493 61.0928 9.232C60.7941 8.304 60.3621 7.52 59.7968 6.88C59.2421 6.24 58.5594 5.74933 57.7488 5.408C56.9381 5.06667 56.0154 4.896 54.9808 4.896C53.9354 4.896 53.0021 5.06667 52.1808 5.408C51.3701 5.74933 50.6821 6.24 50.1168 6.88C49.5621 7.52 49.1354 8.304 48.8368 9.232C48.5381 10.1493 48.3888 11.184 48.3888 12.336C48.3888 13.4987 48.5381 14.544 48.8368 15.472C49.1354 16.3893 49.5621 17.168 50.1168 17.808C50.6821 18.448 51.3701 18.9387 52.1808 19.28C53.0021 19.6107 53.9354 19.776 54.9808 19.776C56.0154 19.776 56.9381 19.6107 57.7488 19.28C58.5594 18.9387 59.2421 18.448 59.7968 17.808C60.3621 17.168 60.7941 16.3893 61.0928 15.472C61.3914 14.544 61.5408 13.4987 61.5408 12.336ZM67.0705 0.688C67.3052 0.688 67.5025 0.698666 67.6625 0.719999C67.8225 0.741332 67.9665 0.783999 68.0945 0.848C68.2225 0.901333 68.3452 0.981333 68.4625 1.088C68.5798 1.19467 68.7132 1.33867 68.8625 1.52L79.9345 15.52C79.8918 15.072 79.8598 14.64 79.8385 14.224C79.8172 13.7973 79.8065 13.3973 79.8065 13.024V0.688H84.5745V24H81.7585C81.3425 24 80.9905 23.936 80.7025 23.808C80.4145 23.68 80.1372 23.4453 79.8705 23.104L68.8785 9.216C68.9105 9.62133 68.9372 10.0213 68.9585 10.416C68.9798 10.8 68.9905 11.1627 68.9905 11.504V24H64.2225V0.688H67.0705ZM104.122 12.336C104.122 14.0213 103.829 15.5787 103.242 17.008C102.666 18.4267 101.85 19.6587 100.794 20.704C99.738 21.7387 98.4633 22.5493 96.97 23.136C95.4873 23.712 93.8393 24 92.026 24H82.97V0.688H92.026C93.8393 0.688 95.4873 0.981333 96.97 1.568C98.4633 2.15466 99.738 2.96533 100.794 4C101.85 5.03467 102.666 6.26667 103.242 7.696C103.829 9.11467 104.122 10.6613 104.122 12.336ZM98.586 12.336C98.586 11.184 98.4367 10.144 98.138 9.216C97.8393 8.288 97.4073 7.504 96.842 6.864C96.2873 6.21333 95.6047 5.71733 94.794 5.376C93.9833 5.024 93.0607 4.848 92.026 4.848H88.41V19.84H92.026C93.0607 19.84 93.9833 19.6693 94.794 19.328C95.6047 18.976 96.2873 18.48 96.842 17.84C97.4073 17.1893 97.8393 16.4 98.138 15.472C98.4367 14.544 98.586 13.4987 98.586 12.336Z" fill="#222222"/>
</svg>
